<?xml version="1.0" encoding="UTF-8"?>
<svg version="1.1" xmlns="http://www.w3.org/2000/svg" width="666" height="375">
<path d="M0 0 C1.23912643 -0.01951218 2.47825287 -0.03902435 3.75492859 -0.05912781 C7.04567291 -0.09346288 10.33351458 -0.08608007 13.62426758 -0.06878662 C15.63238184 -0.07420704 17.63520251 -0.1204182 19.64233398 -0.18188477 C40.92403529 -0.78918385 40.92403529 -0.78918385 46.21981812 2.36859131 C49.57547111 5.67870034 50.8367661 9.8772287 52.32421875 14.23828125 C53.5733944 16.47833395 54.8695487 18.69282483 56.2109375 20.87890625 C57.47982008 23.08090557 58.74675017 25.28403115 60.01171875 27.48828125 C60.64916016 28.59429687 61.28660156 29.7003125 61.94335938 30.83984375 C67.27614022 40.10754545 67.27614022 40.10754545 68.1907196 42.59448242 C69.31015594 45.29279261 70.27530913 47.14450398 72.32421875 49.23828125 C76.71854055 50.47943912 80.97566342 50.2116365 85.5078125 50.01953125 C87.4761951 50.00137395 89.44457967 49.98326695 91.41298771 49.96811676 C95.56085946 49.92152965 99.70702393 49.79421701 103.85351562 49.68133545 C107.26960318 49.59144367 110.68387185 49.519329 114.10108948 49.49304199 C116.66052075 49.46945009 119.21997013 49.40556763 121.77720642 49.29699707 C130.21448294 49.22666485 130.21448294 49.22666485 133.37030029 52.10345459 C134.93935526 54.41627572 136.15844508 56.70144862 137.32421875 59.23828125 C137.90091309 60.20411133 138.47760742 61.16994141 139.07177734 62.16503906 C139.53406738 62.99874023 139.99635742 63.83244141 140.47265625 64.69140625 C141.2630127 66.10607178 141.2630127 66.10607178 142.06933594 67.54931641 C142.60719727 68.5191748 143.14505859 69.4890332 143.69921875 70.48828125 C147.9131468 78.0379345 152.21097067 85.4721655 156.93359375 92.71484375 C158.41158624 95.39681889 159.02493542 97.19733888 159.32421875 100.23828125 C158.38720703 102.67919922 158.38720703 102.67919922 156.89453125 105.23046875 C156.35062744 106.17583496 155.80672363 107.12120117 155.24633789 108.09521484 C154.65328857 109.09117676 154.06023926 110.08713867 153.44921875 111.11328125 C152.85294678 112.1388916 152.2566748 113.16450195 151.64233398 114.22119141 C149.88425643 117.23578219 148.1067369 120.23809486 146.32421875 123.23828125 C145.43703886 124.7484271 144.55026417 126.25881114 143.6640625 127.76953125 C140.07564067 133.84736002 136.38124201 139.82381727 132.3203125 145.6015625 C131.15092466 147.20369411 131.15092466 147.20369411 131.32421875 149.23828125 C132.15615972 150.59675086 133.0438442 151.9213212 133.95703125 153.2265625 C137.31201077 158.15080663 140.27654697 163.23643008 143.19921875 168.42578125 C143.71661621 169.33763184 144.23401367 170.24948242 144.76708984 171.18896484 C145.80371981 173.01602114 146.83906975 174.84380437 147.87304688 176.67236328 C149.890919 180.24030339 151.91854012 183.8026195 153.94921875 187.36328125 C154.86574219 188.97589844 154.86574219 188.97589844 155.80078125 190.62109375 C156.91269614 192.5313065 158.09818481 194.39923034 159.32421875 196.23828125 C159.06722748 200.86412417 156.60268566 204.34337847 154.32421875 208.23828125 C153.46163544 209.73402676 152.59968588 211.23013787 151.73828125 212.7265625 C141.16498917 231.02902326 141.16498917 231.02902326 138.72317505 234.91268921 C137.29512429 237.20142458 137.29512429 237.20142458 136.20602417 239.58731079 C134.2243145 243.335209 132.75009169 245.7791235 128.60186768 247.1149292 C125.15098581 247.4991317 121.80440738 247.59045464 118.33203125 247.57421875 C117.07212372 247.59231598 115.81221619 247.61041321 114.51412964 247.62905884 C111.85012889 247.65270339 109.19394795 247.65717923 106.53076172 247.63134766 C103.81011863 247.60821681 101.09804858 247.63593658 98.37841797 247.71337891 C76.72377285 248.32618802 76.72377285 248.32618802 71.36706543 245.03625488 C68.03322385 241.69521338 66.70461373 237.64952279 65.32421875 233.23828125 C64.50478866 231.69098355 63.64806156 230.16239091 62.7421875 228.6640625 C62.16476807 227.60566162 62.16476807 227.60566162 61.57568359 226.52587891 C60.09795984 223.82469443 58.58173964 221.14679855 57.0625 218.46875 C56.50111328 217.47810547 55.93972656 216.48746094 55.36132812 215.46679688 C54.20035572 213.41964622 53.03888801 211.37277639 51.87695312 209.32617188 C51.04067383 207.84987305 51.04067383 207.84987305 50.1875 206.34375 C49.68516846 205.45840576 49.18283691 204.57306152 48.6652832 203.66088867 C47.4933383 201.54379249 46.38607905 199.41220578 45.32421875 197.23828125 C44.99421875 197.56828125 44.66421875 197.89828125 44.32421875 198.23828125 C42.54429951 198.33198749 40.76065136 198.35572396 38.97827148 198.35180664 C37.83716415 198.35173111 36.69605682 198.35165558 35.52037048 198.35157776 C34.27872635 198.34641647 33.03708221 198.34125519 31.7578125 198.3359375 C29.86217308 198.33381508 29.86217308 198.33381508 27.92823792 198.33164978 C24.56296986 198.32698707 21.19776885 198.31799605 17.83251953 198.3069458 C14.40072205 198.29672971 10.96891766 198.29215174 7.53710938 198.28710938 C0.79946051 198.27605505 -5.9381565 198.25929835 -12.67578125 198.23828125 C-12.67578125 197.57828125 -12.67578125 196.91828125 -12.67578125 196.23828125 C-13.33578125 196.23828125 -13.99578125 196.23828125 -14.67578125 196.23828125 C-14.75054687 196.89570313 -14.8253125 197.553125 -14.90234375 198.23046875 C-15.96170694 202.35021448 -17.94418187 205.6891933 -20.05078125 209.36328125 C-20.49123779 210.14300293 -20.93169434 210.92272461 -21.38549805 211.72607422 C-22.80705524 214.23511641 -24.24003484 216.73733452 -25.67578125 219.23828125 C-26.16030762 220.08519531 -26.64483398 220.93210937 -27.14404297 221.8046875 C-29.46300201 225.85378626 -31.79026882 229.8980898 -34.1328125 233.93359375 C-34.68932495 234.89289795 -34.68932495 234.89289795 -35.25708008 235.87158203 C-35.72525146 236.65259277 -36.19342285 237.43360352 -36.67578125 238.23828125 C-37.07223595 239.23906708 -37.07223595 239.23906708 -37.47669983 240.2600708 C-38.63743231 242.75971497 -39.62976251 244.37629969 -41.67578125 246.23828125 C-46.13603695 247.38025244 -50.4924145 247.16898626 -55.0703125 247.01953125 C-56.37280441 247.00821167 -57.67529633 246.99689209 -59.01725769 246.98522949 C-62.46919028 246.95477866 -65.91840094 246.8762913 -69.3692627 246.78759766 C-72.89488905 246.70554494 -76.42095833 246.66917751 -79.94726562 246.62890625 C-86.85788442 246.54327921 -93.76670196 246.40686647 -100.67578125 246.23828125 C-100.96332779 245.71886459 -101.25087433 245.19944794 -101.5471344 244.66429138 C-102.86135626 242.29137748 -104.17676142 239.91912154 -105.4921875 237.546875 C-106.17069763 236.32115784 -106.17069763 236.32115784 -106.86291504 235.07067871 C-109.0586144 231.11281296 -111.26586161 227.17148174 -113.61328125 223.30078125 C-114.05671875 222.56601562 -114.50015625 221.83125 -114.95703125 221.07421875 C-115.97148268 219.40037389 -116.98859553 217.72812872 -118.01171875 216.05957031 C-119.56006162 213.5234569 -121.08740267 210.97546277 -122.61328125 208.42578125 C-123.37789673 207.1874353 -123.37789673 207.1874353 -124.15795898 205.92407227 C-124.62661377 205.13444092 -125.09526855 204.34480957 -125.578125 203.53125 C-126.00601318 202.82508545 -126.43390137 202.1189209 -126.87475586 201.39135742 C-127.90790278 198.61436177 -127.52116096 197.04369159 -126.67578125 194.23828125 C-125.2578125 191.73046875 -125.2578125 191.73046875 -123.48828125 189.11328125 C-121.14877811 185.54967444 -118.93459755 181.99822313 -116.92578125 178.23828125 C-114.04846177 172.86572537 -111.03380743 167.57916214 -107.98828125 162.30078125 C-107.51229492 161.47126953 -107.03630859 160.64175781 -106.54589844 159.78710938 C-105.86188965 158.6047168 -105.86188965 158.6047168 -105.1640625 157.3984375 C-104.75712158 156.69340088 -104.35018066 155.98836426 -103.9309082 155.26196289 C-103.30962036 154.26024048 -103.30962036 154.26024048 -102.67578125 153.23828125 C-102.26951004 152.54623596 -101.86323883 151.85419067 -101.44465637 151.14117432 C-99.67578125 149.23828125 -99.67578125 149.23828125 -97.1578064 148.75053406 C-96.15488556 148.7564003 -95.15196472 148.76226654 -94.11865234 148.76831055 C-92.98092377 148.76538498 -91.84319519 148.76245941 -90.67098999 148.75944519 C-88.82871323 148.78570732 -88.82871323 148.78570732 -86.94921875 148.8125 C-85.69066071 148.81578812 -84.43210266 148.81907623 -83.13540649 148.82246399 C-80.47351684 148.83289642 -77.81296918 148.85064978 -75.15136719 148.8815918 C-71.73356535 148.92124715 -68.31611323 148.93921326 -64.89810753 148.94890118 C-61.64426345 148.95885503 -58.39050857 148.97910008 -55.13671875 149 C-53.28836929 149.0110804 -53.28836929 149.0110804 -51.40267944 149.02238464 C-49.70554306 149.0416375 -49.70554306 149.0416375 -47.97412109 149.0612793 C-46.47212662 149.07604561 -46.47212662 149.07604561 -44.93978882 149.09111023 C-42.67578125 149.23828125 -42.67578125 149.23828125 -41.67578125 150.23828125 C-39.69578125 146.27828125 -37.71578125 142.31828125 -35.67578125 138.23828125 C-37.50073346 141.99953378 -38.70577674 144.41130421 -41.67578125 147.23828125 C-46.17111733 148.5176917 -50.52526866 148.28840314 -55.16796875 148.1171875 C-56.46904572 148.10445297 -57.77012268 148.09171844 -59.11062622 148.07859802 C-62.55466941 148.04438141 -65.99524571 147.95612686 -69.43792725 147.85626221 C-72.95683891 147.7638599 -76.47631623 147.72302029 -79.99609375 147.67773438 C-86.89073907 147.58147753 -93.78309337 147.42806854 -100.67578125 147.23828125 C-101.26020996 146.19639648 -101.84463867 145.15451172 -102.44677734 144.08105469 C-106.68876196 136.52498067 -110.94596902 128.98009097 -115.30078125 121.48828125 C-115.75807617 120.69534668 -116.21537109 119.90241211 -116.68652344 119.08544922 C-118.73412318 115.54141574 -120.7966487 112.01476471 -122.96484375 108.54296875 C-123.61195313 107.49367188 -124.2590625 106.444375 -124.92578125 105.36328125 C-125.4878125 104.47898437 -126.04984375 103.5946875 -126.62890625 102.68359375 C-127.94550619 99.6082521 -127.77532111 98.37775691 -126.67578125 95.23828125 C-125.58146328 93.25901736 -124.40431922 91.32465244 -123.17578125 89.42578125 C-119.87848782 84.23572409 -116.75302208 78.97261724 -113.73828125 73.61328125 C-113.34898437 72.92645264 -112.9596875 72.23962402 -112.55859375 71.53198242 C-111.02259712 68.79240124 -109.6715003 66.22543839 -108.67578125 63.23828125 C-108.01578125 63.23828125 -107.35578125 63.23828125 -106.67578125 63.23828125 C-106.44890625 62.57828125 -106.22203125 61.91828125 -105.98828125 61.23828125 C-105.55515625 60.24828125 -105.12203125 59.25828125 -104.67578125 58.23828125 C-104.42246033 57.57357315 -104.1691394 56.90886505 -103.90814209 56.22401428 C-102.73645796 53.75419009 -101.68673544 52.10633452 -99.67578125 50.23828125 C-95.37528618 49.0846386 -91.18002517 49.28321336 -86.75390625 49.421875 C-85.4981781 49.43082291 -84.24244995 49.43977081 -82.94866943 49.44898987 C-79.61982444 49.48065507 -76.29540608 49.54744646 -72.9677124 49.63067627 C-70.24342064 49.69085417 -67.51929608 49.71719899 -64.79448318 49.74165249 C-59.17655387 49.79219721 -53.5590753 49.86925929 -47.94238281 49.99780273 C-46.44943695 50.03066628 -46.44943695 50.03066628 -44.92633057 50.06419373 C-42.67578125 50.23828125 -42.67578125 50.23828125 -41.67578125 51.23828125 C-41.11632812 50.21734375 -40.556875 49.19640625 -39.98046875 48.14453125 C-34.89079543 38.89902996 -29.67971685 29.73038478 -24.36328125 20.61328125 C-23.77724121 19.60716797 -23.19120117 18.60105469 -22.58740234 17.56445312 C-20.96027202 14.78251033 -19.33298361 12.00243461 -17.67578125 9.23828125 C-17.38984604 8.55423721 -17.10391083 7.87019318 -16.80931091 7.16542053 C-13.18204849 -0.45369631 -7.80335171 -0.00331849 0 0 Z M-33.67578125 64.23828125 C-32.67578125 66.23828125 -32.67578125 66.23828125 -32.67578125 66.23828125 Z M-30.67578125 69.23828125 C-29.67578125 71.23828125 -29.67578125 71.23828125 -29.67578125 71.23828125 Z M-29.67578125 71.23828125 C-28.67578125 73.23828125 -28.67578125 73.23828125 -28.67578125 73.23828125 Z M-23.67578125 81.23828125 C-22.67578125 83.23828125 -22.67578125 83.23828125 -22.67578125 83.23828125 Z M-22.67578125 83.23828125 C-21.67578125 85.23828125 -21.67578125 85.23828125 -21.67578125 85.23828125 Z M-19.67578125 88.23828125 C-18.67578125 90.23828125 -18.67578125 90.23828125 -18.67578125 90.23828125 Z M-17.67578125 91.23828125 C-16.67578125 93.23828125 -16.67578125 93.23828125 -16.67578125 93.23828125 Z M-16.67578125 93.23828125 C-15.67578125 95.23828125 -15.67578125 95.23828125 -15.67578125 95.23828125 Z M-15.67578125 95.23828125 C-14.67578125 97.23828125 -14.67578125 97.23828125 -14.67578125 97.23828125 Z M-14.67578125 97.23828125 C-15.041875 98.00527344 -15.40796875 98.77226562 -15.78515625 99.5625 C-20.05069982 108.30686431 -24.7463148 116.73843555 -29.67480469 125.12768555 C-30.42938965 126.42379761 -30.42938965 126.42379761 -31.19921875 127.74609375 C-31.65216309 128.5158252 -32.10510742 129.28555664 -32.57177734 130.07861328 C-33.6269397 132.14273673 -34.22109997 133.97387844 -34.67578125 136.23828125 C-30.85169953 132.86307594 -28.73840958 129.10277098 -26.36328125 124.67578125 C-23.14905518 118.81078441 -19.76406611 113.13336909 -16.1171875 107.5234375 C-14.42124399 104.83474658 -13.0017547 102.12422347 -11.67578125 99.23828125 C-12.66578125 98.57828125 -13.65578125 97.91828125 -14.67578125 97.23828125 Z M45.32421875 97.23828125 C44.66421875 98.55828125 44.00421875 99.87828125 43.32421875 101.23828125 C43.98421875 101.23828125 44.64421875 101.23828125 45.32421875 101.23828125 C45.58332031 101.93566406 45.84242188 102.63304687 46.109375 103.3515625 C47.4478843 106.53213604 49.03588108 109.43804076 50.76171875 112.42578125 C51.35855469 113.47121094 51.95539063 114.51664063 52.5703125 115.59375 C54.21630084 118.44570622 54.21630084 118.44570622 57.32421875 120.23828125 C55.95324044 115.51126227 53.96406669 111.7574543 51.32421875 107.61328125 C46.95758867 100.72620661 46.95758867 100.72620661 45.32421875 97.23828125 Z M57.32421875 120.23828125 C58.32421875 122.23828125 58.32421875 122.23828125 58.32421875 122.23828125 Z M58.32421875 122.23828125 C59.32421875 124.23828125 59.32421875 124.23828125 59.32421875 124.23828125 Z M59.32421875 124.23828125 C60.32421875 126.23828125 60.32421875 126.23828125 60.32421875 126.23828125 Z M60.32421875 126.23828125 C60.65421875 127.22828125 60.98421875 128.21828125 61.32421875 129.23828125 C61.32421875 128.24828125 61.32421875 127.25828125 61.32421875 126.23828125 C60.99421875 126.23828125 60.66421875 126.23828125 60.32421875 126.23828125 Z M62.32421875 129.23828125 C62.89686039 133.87227358 64.91507729 137.41760092 67.26171875 141.36328125 C67.62201172 141.98332031 67.98230469 142.60335937 68.35351562 143.2421875 C69.94123501 145.9614859 71.577147 148.61767363 73.32421875 151.23828125 C73.32421875 150.57828125 73.32421875 149.91828125 73.32421875 149.23828125 C73.92699142 149.24050186 74.5297641 149.24272247 75.15080261 149.24501038 C81.42873542 149.26714687 87.70665713 149.28222283 93.98461914 149.29321289 C96.32707164 149.29823926 98.669521 149.30506133 101.01196289 149.3137207 C104.38037897 149.32586043 107.74875353 149.33152656 111.1171875 149.3359375 C112.68620064 149.34367943 112.68620064 149.34367943 114.28691101 149.35157776 C115.2675502 149.35165329 116.24818939 149.35172882 117.25854492 149.35180664 C118.54760994 149.35513756 118.54760994 149.35513756 119.86271667 149.35853577 C122.43521536 149.23285861 124.81489146 148.80476551 127.32421875 148.23828125 C127.32421875 147.90828125 127.32421875 147.57828125 127.32421875 147.23828125 C109.50421875 147.23828125 91.68421875 147.23828125 73.32421875 147.23828125 C72.66421875 145.58828125 72.00421875 143.93828125 71.32421875 142.23828125 C70.00387453 139.93510412 68.66440382 137.67660148 67.26171875 135.42578125 C66.89755859 134.82830078 66.53339844 134.23082031 66.15820312 133.61523438 C65.24415621 132.13687754 64.287859 130.68480057 63.32421875 129.23828125 C62.99421875 129.23828125 62.66421875 129.23828125 62.32421875 129.23828125 Z M-40.67578125 151.23828125 C-40.01578125 152.88828125 -39.35578125 154.53828125 -38.67578125 156.23828125 C-38.34578125 155.57828125 -38.01578125 154.91828125 -37.67578125 154.23828125 C-38.66578125 153.24828125 -39.65578125 152.25828125 -40.67578125 151.23828125 Z M71.32421875 151.23828125 C72.32421875 153.23828125 72.32421875 153.23828125 72.32421875 153.23828125 Z M-37.67578125 156.23828125 C-36.67578125 158.23828125 -36.67578125 158.23828125 -36.67578125 158.23828125 Z M-36.67578125 158.23828125 C-36.34578125 159.22828125 -36.01578125 160.21828125 -35.67578125 161.23828125 C-35.67578125 160.24828125 -35.67578125 159.25828125 -35.67578125 158.23828125 C-36.00578125 158.23828125 -36.33578125 158.23828125 -36.67578125 158.23828125 Z M-34.67578125 161.23828125 C-33.67578125 163.23828125 -33.67578125 163.23828125 -33.67578125 163.23828125 Z M-33.67578125 163.23828125 C-32.67578125 165.23828125 -32.67578125 165.23828125 -32.67578125 165.23828125 Z M-32.67578125 165.23828125 C-31.67578125 167.23828125 -31.67578125 167.23828125 -31.67578125 167.23828125 Z M-30.67578125 168.23828125 C-29.67578125 170.23828125 -29.67578125 170.23828125 -29.67578125 170.23828125 Z M-27.67578125 173.23828125 C-26.67578125 175.23828125 -26.67578125 175.23828125 -26.67578125 175.23828125 Z M-26.67578125 175.23828125 C-25.67578125 177.23828125 -25.67578125 177.23828125 -25.67578125 177.23828125 Z M-25.67578125 177.23828125 C-24.67578125 179.23828125 -24.67578125 179.23828125 -24.67578125 179.23828125 Z M-23.67578125 180.23828125 C-22.67578125 182.23828125 -22.67578125 182.23828125 -22.67578125 182.23828125 Z M-22.67578125 182.23828125 C-21.67578125 184.23828125 -21.67578125 184.23828125 -21.67578125 184.23828125 Z M-19.67578125 187.23828125 C-18.67578125 189.23828125 -18.67578125 189.23828125 -18.67578125 189.23828125 Z M-18.67578125 189.23828125 C-17.67578125 191.23828125 -17.67578125 191.23828125 -17.67578125 191.23828125 Z M48.32421875 191.23828125 C49.32421875 193.23828125 49.32421875 193.23828125 49.32421875 193.23828125 Z M-16.67578125 192.23828125 C-15.67578125 194.23828125 -15.67578125 194.23828125 -15.67578125 194.23828125 Z M-15.67578125 194.23828125 C-14.67578125 196.23828125 -14.67578125 196.23828125 -14.67578125 196.23828125 Z M46.32421875 194.23828125 C47.32421875 196.23828125 47.32421875 196.23828125 47.32421875 196.23828125 Z " fill="#F9F9F9" transform="translate(333.67578125,47.76171875)"/>
<path d="M0 0 C0.97821716 -0.0030011 1.95643433 -0.0060022 2.96429443 -0.00909424 C4.02054016 0.00325256 5.07678589 0.01559937 6.16503906 0.02832031 C7.25399475 0.03019348 8.34295044 0.03206665 9.46490479 0.03399658 C11.77155613 0.04072416 14.07819594 0.05465253 16.38476562 0.07519531 C19.9027781 0.10619955 23.42034132 0.11615251 26.93847656 0.12207031 C29.18066948 0.13124698 31.42285787 0.14162485 33.66503906 0.15332031 C34.71318787 0.15757019 35.76133667 0.16182007 36.84124756 0.16619873 C51.10336898 0.30449141 51.10336898 0.30449141 53.96582031 3.09960938 C54.59810547 4.22447754 54.59810547 4.22447754 55.24316406 5.37207031 C55.96777832 6.62093018 55.96777832 6.62093018 56.70703125 7.89501953 C57.43647949 9.23717529 57.43647949 9.23717529 58.18066406 10.60644531 C58.70047852 11.51797363 59.22029297 12.42950195 59.75585938 13.36865234 C61.25754105 16.01743895 62.72499691 18.68215293 64.18066406 21.35644531 C64.54224609 22.01418945 64.90382813 22.67193359 65.27636719 23.34960938 C66.71420616 25.96990114 68.12435465 28.60204636 69.50878906 31.25097656 C70.76387583 33.5822709 72.05437803 35.8498201 73.41503906 38.11816406 C73.79176758 38.75189941 74.16849609 39.38563477 74.55664062 40.03857422 C75.28790254 41.26189726 76.02897531 42.47942663 76.78125 43.68994141 C79.19851234 47.75555324 79.19851234 47.75555324 79.12207031 50.32910156 C77.71792913 53.35295748 76.21366301 56.30555032 74.61816406 59.23144531 C74.08243774 60.22337891 74.08243774 60.22337891 73.53588867 61.23535156 C68.33704133 70.81427626 62.87868481 80.24115899 57.30566406 89.60644531 C56.92418213 90.25097656 56.5427002 90.89550781 56.1496582 91.55957031 C54.64243875 94.07465173 53.26264413 96.27446524 51.18066406 98.35644531 C48.8031311 98.63059998 48.8031311 98.63059998 45.78466797 98.6628418 C44.09248642 98.68682289 44.09248642 98.68682289 42.36611938 98.71128845 C41.14218475 98.71665115 39.91825012 98.72201385 38.65722656 98.72753906 C37.40436859 98.73656754 36.15151062 98.74559601 34.86068726 98.75489807 C32.20580685 98.76943017 29.55135763 98.77908978 26.89648438 98.78198242 C23.4975466 98.78736418 20.09979858 98.82502766 16.70119667 98.87072659 C13.45744368 98.90766032 10.21366162 98.90901177 6.96972656 98.91503906 C5.74984039 98.93457138 4.52995422 98.9541037 3.27310181 98.97422791 C-5.16273999 98.92903255 -5.16273999 98.92903255 -8.52319336 95.99853516 C-9.16478394 94.69070068 -9.16478394 94.69070068 -9.81933594 93.35644531 C-10.32335937 92.421875 -10.82738281 91.48730469 -11.34667969 90.52441406 C-12.04470703 89.04908203 -12.04470703 89.04908203 -12.75683594 87.54394531 C-14.75914945 83.32179676 -16.99047456 79.40026771 -19.49243164 75.46459961 C-21.72633882 71.91542049 -23.82843137 68.28927744 -25.94433594 64.66894531 C-26.80091238 63.20659184 -27.65767835 61.74434938 -28.51464844 60.28222656 C-28.90942383 59.5998291 -29.30419922 58.91743164 -29.7109375 58.21435547 C-30.64153056 56.65448472 -31.65520946 55.14460357 -32.68652344 53.64941406 C-33.81933594 51.35644531 -33.81933594 51.35644531 -33.79980469 49.08691406 C-32.3432548 45.03062573 -30.26948801 41.40239121 -28.13183594 37.66894531 C-27.67558838 36.86094482 -27.21934082 36.05294434 -26.74926758 35.22045898 C-24.02817009 30.41928946 -21.27017771 25.64217815 -18.38964844 20.93457031 C-17.09497171 18.80898166 -15.82366599 16.6732331 -14.56152344 14.52832031 C-14.16070557 13.85051514 -13.7598877 13.17270996 -13.34692383 12.47436523 C-12.55378276 11.13270265 -11.76375919 9.78919082 -10.97729492 8.44360352 C-5.94835257 -0.02520193 -5.94835257 -0.02520193 0 0 Z " fill="#F7F7F7" transform="translate(326.8193359375,246.6435546875)"/>
<path d="M0 0 C0.98783981 -0.0182634 1.97567963 -0.03652679 2.99345398 -0.05534363 C4.67583916 -0.09846428 4.67583916 -0.09846428 6.39221191 -0.14245605 C8.21096077 -0.15383858 8.21096077 -0.15383858 10.06645203 -0.16545105 C11.3131517 -0.18113632 12.55985138 -0.19682159 13.84432983 -0.21298218 C16.48527897 -0.2376433 19.12453911 -0.25285183 21.76542664 -0.25456238 C24.46987963 -0.25871031 27.17110099 -0.29343977 29.87480164 -0.35710144 C33.77302439 -0.44255433 37.66738701 -0.46781675 41.56645203 -0.47795105 C43.37609184 -0.52880608 43.37609184 -0.52880608 45.22229004 -0.58068848 C53.42206166 -0.49201724 53.42206166 -0.49201724 56.57807922 2.49081421 C58.12795543 4.78404728 59.35075253 7.03455358 60.51567078 9.5415802 C61.18857263 10.7149838 61.869885 11.88363708 62.56254578 13.04548645 C63.71039032 15.10686783 64.85618162 17.16939369 66.00004578 19.23298645 C66.50020203 19.99482239 67.00035828 20.75665833 67.51567078 21.5415802 C68.17567078 21.5415802 68.83567078 21.5415802 69.51567078 21.5415802 C69.59817078 22.2222052 69.68067078 22.9028302 69.76567078 23.6040802 C70.44427639 26.26195218 71.17808618 27.80853513 72.57817078 30.1040802 C74.51567078 33.5415802 74.51567078 33.5415802 74.51567078 37.5415802 C76.00067078 38.0365802 76.00067078 38.0365802 77.51567078 38.5415802 C78.93754578 40.4322052 78.93754578 40.4322052 80.26567078 42.7915802 C80.71426453 43.55986145 81.16285828 44.3281427 81.62504578 45.1197052 C82.76539316 48.22064983 82.57299043 49.40576893 81.51567078 52.5415802 C80.18152077 55.32309936 78.67468812 57.99112386 77.14067078 60.6665802 C76.47998596 61.83616272 76.47998596 61.83616272 75.80595398 63.02937317 C74.38439679 65.53841536 72.95141718 68.04063347 71.51567078 70.5415802 C71.03114441 71.38849426 70.54661804 72.23540833 70.04740906 73.10798645 C67.72845001 77.15708521 65.40118321 81.20138875 63.05863953 85.2368927 C62.68763123 85.87642883 62.31662292 86.51596497 61.93437195 87.17488098 C61.46620056 87.95589172 60.99802917 88.73690247 60.51567078 89.5415802 C60.11921608 90.54236603 60.11921608 90.54236603 59.7147522 91.56336975 C58.55401971 94.06301392 57.56168951 95.67959864 55.51567078 97.5415802 C51.05541508 98.68355139 46.69903753 98.47228521 42.12113953 98.3228302 C40.81864761 98.31151062 39.5161557 98.30019104 38.17419434 98.28852844 C34.72226175 98.25807761 31.27305109 98.17959025 27.82218933 98.09089661 C24.29656298 98.00884389 20.7704937 97.97247646 17.2441864 97.9322052 C10.33356761 97.84657816 3.42475006 97.71016542 -3.48432922 97.5415802 C-3.77187576 97.02216354 -4.0594223 96.50274689 -4.35568237 95.96759033 C-5.66990423 93.59467643 -6.9853094 91.22242049 -8.30073547 88.85017395 C-8.75307556 88.03302917 -9.20541565 87.2158844 -9.67146301 86.37397766 C-11.86716238 82.41611191 -14.07440959 78.47478069 -16.42182922 74.6040802 C-16.86526672 73.86931458 -17.30870422 73.13454895 -17.76557922 72.3775177 C-18.78003065 70.70367285 -19.7971435 69.03142767 -20.82026672 67.36286926 C-22.36860959 64.82675585 -23.89595064 62.27876172 -25.42182922 59.7290802 C-25.93157288 58.90351624 -26.44131653 58.07795227 -26.96650696 57.22737122 C-27.43516174 56.43773987 -27.90381653 55.64810852 -28.38667297 54.83454895 C-28.81456116 54.1283844 -29.24244934 53.42221985 -29.68330383 52.69465637 C-30.71645076 49.91766072 -30.32970893 48.34699054 -29.48432922 45.5415802 C-28.06636047 43.0337677 -28.06636047 43.0337677 -26.29682922 40.4165802 C-23.95732608 36.85297339 -21.74314552 33.30152208 -19.73432922 29.5415802 C-16.85700975 24.16902432 -13.84235541 18.8824611 -10.79682922 13.6040802 C-10.3208429 12.77456848 -9.84485657 11.94505676 -9.35444641 11.09040833 C-8.67043762 9.90801575 -8.67043762 9.90801575 -7.97261047 8.70173645 C-7.56566956 7.99669983 -7.15872864 7.29166321 -6.73945618 6.56526184 C-6.11816833 5.56353943 -6.11816833 5.56353943 -5.48432922 4.5415802 C-5.07642151 3.85215332 -4.66851379 3.16272644 -4.24824524 2.45240784 C-2.48432922 0.5415802 -2.48432922 0.5415802 0 0 Z " fill="#F9F9F9" transform="translate(236.4843292236328,196.4584197998047)"/>
<path d="M0 0 C29.7 0.495 29.7 0.495 60 1 C60 1.33 60 1.66 60 2 C59.30810577 1.97477768 58.61621155 1.94955536 57.90335083 1.92356873 C51.34300082 1.69979739 44.78659433 1.55962631 38.22249031 1.51034451 C34.84776085 1.48213633 31.47978334 1.4231011 28.10742188 1.2902832 C13.87597665 0.14640326 13.87597665 0.14640326 0.87640381 4.55056763 C-2.5620267 8.47842438 -4.43550816 12.95471283 -6.1762085 17.82907104 C-7.35851762 20.94479765 -9.05365963 23.65609768 -10.8203125 26.47265625 C-11.65175781 27.8793457 -11.65175781 27.8793457 -12.5 29.31445312 C-13.03625 30.22130859 -13.5725 31.12816406 -14.125 32.0625 C-14.69992187 33.03509766 -15.27484375 34.00769531 -15.8671875 35.00976562 C-17.24463009 37.33993934 -18.62223225 39.67001853 -20 42 C-20.66 41.67 -21.32 41.34 -22 41 C-20.56890766 37.14868444 -18.77647474 33.71782394 -16.69921875 30.17578125 C-15.72758789 28.50805664 -15.72758789 28.50805664 -14.73632812 26.80664062 C-14.05375361 25.64171127 -13.37080895 24.47699871 -12.6875 23.3125 C-11.35519694 21.03944367 -10.02572355 18.76472619 -8.69921875 16.48828125 C-8.10971436 15.48321533 -7.52020996 14.47814941 -6.9128418 13.44262695 C-4.46559368 9.03820504 -2.25335109 4.50670218 0 0 Z " fill="#434343" transform="translate(405,97)"/>
<path d="M0 0 C0 3.63517447 -0.93642506 4.90689284 -2.8125 8 C-5.20640619 11.97515712 -7.55043574 15.96146493 -9.80859375 20.015625 C-10.53695435 21.31113281 -10.53695435 21.31113281 -11.2800293 22.6328125 C-12.25451811 24.36782663 -13.22094103 26.1073975 -14.17895508 27.8515625 C-14.63036865 28.64820313 -15.08178223 29.44484375 -15.546875 30.265625 C-15.94745117 30.98524414 -16.34802734 31.70486328 -16.76074219 32.44628906 C-17.3741748 33.21537598 -17.3741748 33.21537598 -18 34 C-18.99 34 -19.98 34 -21 34 C-18.05437331 27.94858253 -14.83455449 22.1209589 -11.4375 16.3125 C-10.95603516 15.48427734 -10.47457031 14.65605469 -9.97851562 13.80273438 C-9.05661287 12.21888769 -8.13150204 10.63690237 -7.20263672 9.05712891 C-6.23193512 7.39672865 -5.28584702 5.72195317 -4.34765625 4.04296875 C-3 2 -3 2 0 0 Z " fill="#191919" transform="translate(405,201)"/>
<path d="M0 0 C0.495 0.99 0.495 0.99 1 2 C-27.71 2.495 -27.71 2.495 -57 3 C-57 2.34 -57 1.68 -57 1 C-54.08726175 0.16283055 -51.52085393 -0.11809461 -48.49438477 -0.09765625 C-47.60989151 -0.09435303 -46.72539825 -0.0910498 -45.81410217 -0.08764648 C-44.86611252 -0.07934814 -43.91812286 -0.0710498 -42.94140625 -0.0625 C-41.96010239 -0.05871338 -40.97879852 -0.05492676 -39.96775818 -0.05102539 C-35.77296865 -0.0346863 -31.57827678 -0.0065529 -27.38354492 0.02050781 C-24.31950328 0.03859458 -21.25547747 0.05068799 -18.19140625 0.0625 C-16.77245811 0.07494751 -16.77245811 0.07494751 -15.32484436 0.08764648 C-10.29061551 0.10638052 -4.65485739 -1.55161913 0 0 Z " fill="#7B7B7B" transform="translate(464,196)"/>
<path d="M0 0 C2.11389144 2.74369391 4.04289423 5.52175859 5.8125 8.5 C6.27269531 9.2528125 6.73289062 10.005625 7.20703125 10.78125 C8 13 8 13 7.13671875 15.28125 C6.57404297 16.13203125 6.57404297 16.13203125 6 17 C5.01780373 15.23084525 4.03934641 13.45961431 3.0625 11.6875 C2.51722656 10.70136719 1.97195313 9.71523437 1.41015625 8.69921875 C0 6 0 6 -1 3 C-0.67 2.01 -0.34 1.02 0 0 Z " fill="#262626" transform="translate(293,97)"/>
<path d="M0 0 C0 3.93974955 -1.47789475 5.82936093 -3.5 9.1875 C-4.1496875 10.27417969 -4.799375 11.36085937 -5.46875 12.48046875 C-6.22671875 13.72763672 -6.22671875 13.72763672 -7 15 C-7.66 14.67 -8.32 14.34 -9 14 C-7.03142354 8.58641473 -4.89000378 3.26000252 0 0 Z " fill="#282828" transform="translate(405,201)"/>
<path d="M0 0 C0.33 0.66 0.66 1.32 1 2 C-4.94 2 -10.88 2 -17 2 C-17 1.67 -17 1.34 -17 1 C-14.73052303 0.63724344 -12.45935265 0.28506814 -10.1875 -0.0625 C-8.92292969 -0.25972656 -7.65835937 -0.45695313 -6.35546875 -0.66015625 C-3 -1 -3 -1 0 0 Z " fill="#545454" transform="translate(464,196)"/>
<path d="M0 0 C0.99 0.33 1.98 0.66 3 1 C1.35 3.64 -0.3 6.28 -2 9 C-2.66 8.34 -3.32 7.68 -4 7 C-2.68 4.69 -1.36 2.38 0 0 Z " fill="#242424" transform="translate(388,227)"/>
<path d="M0 0 C0.66 0 1.32 0 2 0 C1.01 3.3 0.02 6.6 -1 10 C-3 6 -3 6 -2.1875 3.3125 C-1 1 -1 1 0 0 Z " fill="#232323" transform="translate(382,139)"/>
<path d="M0 0 C0.99 0.33 1.98 0.66 3 1 C4.1875 3.5625 4.1875 3.5625 5 6 C4.34 6.66 3.68 7.32 3 8 C0 2.25 0 2.25 0 0 Z " fill="#1E1E1E" transform="translate(296,106)"/>
<path d="M0 0 C0.99 0.33 1.98 0.66 3 1 C1.92598892 3.91517292 1.22189824 5.77810176 -1 8 C-2.2077558 4.37673261 -1.54311128 3.35853631 0 0 Z " fill="#262626" transform="translate(405,97)"/>
<path d="" fill="#000000" transform="translate(0,0)"/>
<path d="" fill="#000000" transform="translate(0,0)"/>
<path d="" fill="#000000" transform="translate(0,0)"/>
<path d="" fill="#000000" transform="translate(0,0)"/>
<path d="" fill="#000000" transform="translate(0,0)"/>
<path d="" fill="#000000" transform="translate(0,0)"/>
<path d="" fill="#000000" transform="translate(0,0)"/>
<path d="" fill="#000000" transform="translate(0,0)"/>
<path d="" fill="#000000" transform="translate(0,0)"/>
<path d="" fill="#000000" transform="translate(0,0)"/>
<path d="" fill="#000000" transform="translate(0,0)"/>
<path d="" fill="#000000" transform="translate(0,0)"/>
<path d="" fill="#000000" transform="translate(0,0)"/>
<path d="" fill="#000000" transform="translate(0,0)"/>
<path d="" fill="#000000" transform="translate(0,0)"/>
<path d="" fill="#000000" transform="translate(0,0)"/>
<path d="" fill="#000000" transform="translate(0,0)"/>
<path d="" fill="#000000" transform="translate(0,0)"/>
<path d="" fill="#000000" transform="translate(0,0)"/>
<path d="" fill="#000000" transform="translate(0,0)"/>
<path d="" fill="#000000" transform="translate(0,0)"/>
<path d="" fill="#000000" transform="translate(0,0)"/>
<path d="" fill="#000000" transform="translate(0,0)"/>
<path d="" fill="#000000" transform="translate(0,0)"/>
<path d="" fill="#000000" transform="translate(0,0)"/>
<path d="" fill="#000000" transform="translate(0,0)"/>
<path d="" fill="#000000" transform="translate(0,0)"/>
<path d="" fill="#000000" transform="translate(0,0)"/>
<path d="" fill="#000000" transform="translate(0,0)"/>
<path d="" fill="#000000" transform="translate(0,0)"/>
<path d="" fill="#000000" transform="translate(0,0)"/>
<path d="" fill="#000000" transform="translate(0,0)"/>
<path d="" fill="#000000" transform="translate(0,0)"/>
<path d="" fill="#000000" transform="translate(0,0)"/>
<path d="" fill="#000000" transform="translate(0,0)"/>
<path d="" fill="#000000" transform="translate(0,0)"/>
<path d="" fill="#000000" transform="translate(0,0)"/>
<path d="" fill="#000000" transform="translate(0,0)"/>
<path d="" fill="#000000" transform="translate(0,0)"/>
<path d="" fill="#000000" transform="translate(0,0)"/>
<path d="" fill="#000000" transform="translate(0,0)"/>
<path d="" fill="#000000" transform="translate(0,0)"/>
<path d="" fill="#000000" transform="translate(0,0)"/>
<path d="" fill="#000000" transform="translate(0,0)"/>
<path d="" fill="#000000" transform="translate(0,0)"/>
<path d="" fill="#000000" transform="translate(0,0)"/>
<path d="" fill="#000000" transform="translate(0,0)"/>
<path d="" fill="#000000" transform="translate(0,0)"/>
<path d="" fill="#000000" transform="translate(0,0)"/>
<path d="" fill="#000000" transform="translate(0,0)"/>
<path d="" fill="#000000" transform="translate(0,0)"/>
<path d="" fill="#000000" transform="translate(0,0)"/>
<path d="" fill="#000000" transform="translate(0,0)"/>
<path d="" fill="#000000" transform="translate(0,0)"/>
<path d="" fill="#000000" transform="translate(0,0)"/>
<path d="" fill="#000000" transform="translate(0,0)"/>
<path d="" fill="#000000" transform="translate(0,0)"/>
<path d="" fill="#000000" transform="translate(0,0)"/>
<path d="" fill="#000000" transform="translate(0,0)"/>
<path d="" fill="#000000" transform="translate(0,0)"/>
<path d="" fill="#000000" transform="translate(0,0)"/>
<path d="" fill="#000000" transform="translate(0,0)"/>
<path d="" fill="#010000" transform="translate(0,0)"/>
<path d="" fill="#000000" transform="translate(0,0)"/>
<path d="" fill="#000000" transform="translate(0,0)"/>
<path d="" fill="#000000" transform="translate(0,0)"/>
<path d="" fill="#000000" transform="translate(0,0)"/>
<path d="" fill="#000000" transform="translate(0,0)"/>
<path d="" fill="#000000" transform="translate(0,0)"/>
<path d="" fill="#000000" transform="translate(0,0)"/>
<path d="" fill="#000000" transform="translate(0,0)"/>
<path d="" fill="#000000" transform="translate(0,0)"/>
<path d="" fill="#000000" transform="translate(0,0)"/>
<path d="" fill="#000000" transform="translate(0,0)"/>
<path d="" fill="#000000" transform="translate(0,0)"/>
<path d="" fill="#000000" transform="translate(0,0)"/>
<path d="" fill="#000000" transform="translate(0,0)"/>
<path d="" fill="#000000" transform="translate(0,0)"/>
<path d="" fill="#000000" transform="translate(0,0)"/>
</svg>
