<?xml version="1.0" encoding="UTF-8"?>
<svg version="1.1" xmlns="http://www.w3.org/2000/svg" width="666" height="375">
<path d="M0 0 C2.16646943 3.30840159 4.10531647 6.68032184 5.9609375 10.171875 C8.98656783 15.76229357 12.07820584 21.29882886 15.31640625 26.76953125 C15.95078613 27.84170898 16.58516602 28.91388672 17.23876953 30.01855469 C18.49602227 32.13572845 19.75858724 34.24975807 21.02685547 36.36035156 C21.6045166 37.33584961 22.18217773 38.31134766 22.77734375 39.31640625 C23.29498291 40.18112549 23.81262207 41.04584473 24.34594727 41.93676758 C25.65049992 44.55126679 26.37402616 46.50564002 26.5859375 49.421875 C25.6965332 51.67578125 25.6965332 51.67578125 24.26171875 53.984375 C23.73304199 54.85400879 23.20436523 55.72364258 22.65966797 56.61962891 C21.78785889 58.00674072 21.78785889 58.00674072 20.8984375 59.421875 C19.69757296 61.38701606 18.49839747 63.35319012 17.30078125 65.3203125 C16.68444824 66.32545898 16.06811523 67.33060547 15.43310547 68.36621094 C11.98082301 74.07712386 8.72921937 79.90275204 5.45825195 85.71875 C4.99249756 86.54117188 4.52674316 87.36359375 4.046875 88.2109375 C3.64259277 88.92975098 3.23831055 89.64856445 2.82177734 90.38916016 C2.4139502 91.05995605 2.00612305 91.73075195 1.5859375 92.421875 C1.17842758 93.11116089 0.77091766 93.80044678 0.35105896 94.51062012 C-1.4140625 96.421875 -1.4140625 96.421875 -3.89839172 96.97018433 C-4.88623154 96.99146393 -5.87407135 97.01274353 -6.8918457 97.03466797 C-8.57423088 97.08263016 -8.57423088 97.08263016 -10.29060364 97.13156128 C-11.50310287 97.14228668 -12.71560211 97.15301208 -13.96484375 97.1640625 C-15.21154343 97.18211945 -16.4582431 97.20017639 -17.74272156 97.21878052 C-20.38367434 97.24782886 -23.02289485 97.26715747 -25.66381836 97.27294922 C-28.36853502 97.28157126 -31.06944901 97.32326207 -33.77319336 97.39599609 C-37.67159249 97.49359295 -41.56534983 97.5245115 -45.46484375 97.5390625 C-47.27448357 97.59765945 -47.27448357 97.59765945 -49.12068176 97.65744019 C-52.50116111 97.62110988 -55.20389598 97.48908912 -58.4140625 96.421875 C-61.27547067 93.41929342 -62.78800342 90.20018562 -64.4140625 86.421875 C-65.27483618 84.89900634 -66.15211964 83.38519516 -67.0546875 81.88671875 C-67.92528422 80.37806845 -68.79505857 78.86894333 -69.6640625 77.359375 C-72.51734081 72.40646786 -75.38038686 67.46144845 -78.3125 62.5546875 C-78.77108398 61.78519775 -79.22966797 61.01570801 -79.70214844 60.22290039 C-80.57355739 58.76381554 -81.44901847 57.30714077 -82.32910156 55.85327148 C-86.14198632 49.4584518 -86.14198632 49.4584518 -86.4140625 46.421875 C-85.23339844 43.68310547 -85.23339844 43.68310547 -83.3984375 40.5390625 C-83.07137314 39.97127075 -82.74430878 39.403479 -82.40733337 38.81848145 C-81.33843008 36.97054321 -80.25193449 35.13369985 -79.1640625 33.296875 C-78.42604659 32.03252612 -77.68882614 30.7677126 -76.95239258 29.50244141 C-75.12634697 26.37403492 -73.28417621 23.25552927 -71.43438721 20.14111328 C-70.4933846 18.55553206 -69.55679049 16.96733671 -68.62060547 15.37890625 C-67.12465617 12.84514496 -65.61752056 10.3187046 -64.1015625 7.796875 C-63.66489258 7.06452637 -63.22822266 6.33217773 -62.77832031 5.57763672 C-60.85807481 2.4375694 -59.52025617 0.49267078 -56.4140625 -1.578125 C-54.49487305 -1.86332703 -54.49487305 -1.86332703 -52.30078125 -1.9128418 C-51.47562012 -1.93593918 -50.65045898 -1.95903656 -49.80029297 -1.98283386 C-48.90971191 -1.99752213 -48.01913086 -2.01221039 -47.1015625 -2.02734375 C-46.17746582 -2.04908157 -45.25336914 -2.0708194 -44.30126953 -2.09321594 C-42.34108122 -2.13715881 -40.38078159 -2.17635271 -38.42041016 -2.21118164 C-35.4530598 -2.26491878 -32.48646568 -2.33530244 -29.51953125 -2.40820312 C-4.54282201 -2.96974125 -4.54282201 -2.96974125 0 0 Z " fill="#939393" transform="translate(379.4140625,50.578125)"/>
<path d="M0 0 C1.86368225 -0.0129158 1.86368225 -0.0129158 3.76501465 -0.02609253 C7.05864355 -0.03377197 10.34842266 0.00231573 13.64154053 0.05273438 C15.65565937 0.07030735 17.66625104 0.05280646 19.68017578 0.02197266 C23.55927473 -0.03370819 27.43318187 -0.02688468 31.3125 0 C33.10802307 -0.02732712 33.10802307 -0.02732712 34.93981934 -0.0552063 C43.04232351 0.14977946 43.04232351 0.14977946 46.17448425 3.08963013 C47.73704902 5.39326483 48.97417604 7.67815883 50.15625 10.1953125 C50.72770752 11.15066895 51.29916504 12.10602539 51.88793945 13.09033203 C52.34386475 13.91130371 52.79979004 14.73227539 53.26953125 15.578125 C54.05239502 16.97732178 54.05239502 16.97732178 54.85107422 18.40478516 C55.38490723 19.36690918 55.91874023 20.3290332 56.46875 21.3203125 C61.10822512 29.6701471 61.10822512 29.6701471 66.03515625 37.8515625 C66.46078857 38.53202637 66.8864209 39.21249023 67.32495117 39.91357422 C68.1054376 41.14725141 68.89787013 42.37348544 69.7043457 43.59033203 C71.26139856 46.05685613 72.21572939 47.60903289 71.91577148 50.56567383 C71.08497823 53.44207182 69.94383803 55.6557013 68.41796875 58.23046875 C67.85037842 59.195896 67.28278809 60.16132324 66.69799805 61.15600586 C66.08609619 62.17960205 65.47419434 63.20319824 64.84375 64.2578125 C64.22089111 65.31170166 63.59803223 66.36559082 62.95629883 67.45141602 C61.03069785 70.70405766 59.09446781 73.95017647 57.15625 77.1953125 C55.96867144 79.19266163 54.78116793 81.19005538 53.59375 83.1875 C51.52929863 86.6498738 49.46377426 90.11157656 47.38671875 93.56640625 C46.97832764 94.24630615 46.56993652 94.92620605 46.14916992 95.62670898 C45.15625 97.1953125 45.15625 97.1953125 44.15625 98.1953125 C42.40958333 98.33606639 40.65729378 98.40765707 38.90551758 98.45166016 C37.7837764 98.48063385 36.66203522 98.50960754 35.50630188 98.53945923 C31.03416907 98.62383944 26.56205976 98.6968133 22.08936024 98.74375343 C18.6940632 98.77948329 15.30114245 98.83267313 11.90698242 98.92919922 C7.99673419 99.04006929 4.08750294 99.07705723 0.17578125 99.109375 C-1.64326973 99.17434677 -1.64326973 99.17434677 -3.49906921 99.2406311 C-11.74439197 99.22216225 -11.74439197 99.22216225 -14.89097595 96.28311157 C-16.44874669 93.97899764 -17.66326198 91.71023558 -18.84375 89.1953125 C-19.70013931 87.73243215 -20.56698434 86.2755655 -21.44921875 84.828125 C-22.3136002 83.32764873 -23.17416993 81.82497129 -24.03125 80.3203125 C-26.97569805 75.15114744 -29.9392226 70.00822205 -33.0703125 64.94921875 C-33.58698486 64.10020996 -34.10365723 63.25120117 -34.63598633 62.37646484 C-35.63014303 60.74577325 -36.63986453 59.12444363 -37.66674805 57.51416016 C-38.1131665 56.77343262 -38.55958496 56.03270508 -39.01953125 55.26953125 C-39.42083252 54.62588623 -39.82213379 53.98224121 -40.2355957 53.3190918 C-41.38800096 49.29469463 -39.22276199 45.94889595 -37.42675781 42.37792969 C-36.88889648 41.42563477 -36.35103516 40.47333984 -35.796875 39.4921875 C-35.19875 38.42871094 -34.600625 37.36523438 -33.984375 36.26953125 C-33.04851562 34.62404297 -33.04851562 34.62404297 -32.09375 32.9453125 C-31.4853125 31.86378906 -30.876875 30.78226563 -30.25 29.66796875 C-26.55220279 23.11781088 -22.84357056 16.5669815 -18.84375 10.1953125 C-18.31587891 9.07764999 -18.31587891 9.07764999 -17.77734375 7.93740845 C-13.48615181 -0.11665234 -8.6296067 -0.13133904 0 0 Z " fill="#929292" transform="translate(420.84375,96.8046875)"/>
<path d="M0 0 C1.20733795 0.00273422 2.4146759 0.00546844 3.65859985 0.00828552 C4.90388458 -0.00456985 6.14916931 -0.01742523 7.43218994 -0.03067017 C10.06786957 -0.0479093 12.70002592 -0.05221063 15.33535767 -0.03639221 C18.03316936 -0.02247212 20.72693479 -0.04328223 23.42422485 -0.09791565 C27.31610543 -0.17145963 31.20361077 -0.18388196 35.09609985 -0.17921448 C36.29938934 -0.20684372 37.50267883 -0.23447296 38.74243164 -0.26293945 C46.91052445 -0.12760566 46.91052445 -0.12760566 50.05990601 2.84591675 C51.61418931 5.14334746 52.83587173 7.40115198 54.01016235 9.91062927 C54.78178893 11.25863164 55.56140462 12.60214015 56.35391235 13.93797302 C57.07595147 15.23953924 57.79467909 16.54294775 58.51016235 17.84812927 C59.28773068 19.24846771 60.06637489 20.64820928 60.84609985 22.04734802 C61.40249146 23.0458075 61.40249146 23.0458075 61.97012329 24.06443787 C63.31705711 26.45540348 64.71604819 28.8118815 66.13516235 31.16062927 C66.59277954 31.92246521 67.05039673 32.68430115 67.5218811 33.46922302 C68.65366868 35.32582995 69.8058278 37.17003585 70.9671936 39.00828552 C71.62074829 40.06918396 72.27430298 41.1300824 72.94766235 42.22312927 C73.55481079 43.18863708 74.16195923 44.1541449 74.7875061 45.14891052 C76.25549879 48.46479176 75.99059556 49.47958337 75.01016235 52.91062927 C74.08169823 54.7823716 73.07585902 56.61667984 72.01797485 58.41844177 C71.3940686 59.48965271 70.77016235 60.56086365 70.12734985 61.66453552 C69.46992798 62.77699646 68.8125061 63.8894574 68.13516235 65.03562927 C66.86690246 67.20488214 65.59867416 69.37415348 64.33047485 71.54344177 C63.80942421 72.37802917 63.80942421 72.37802917 63.27784729 73.22947693 C61.13413823 76.71525532 59.50895398 80.11443273 58.07876587 83.95359802 C55.88002274 89.35179732 53.68817593 94.24650385 49.01016235 97.91062927 C40.32739452 101.02119905 30.78236717 100.18373499 21.71798706 99.73985291 C19.01775451 99.63396783 16.32178515 99.63296164 13.61979961 99.63424301 C10.37751778 99.62636693 7.1379662 99.54113778 3.8968811 99.45750427 C2.69367722 99.44435181 1.49047333 99.43119934 0.25080872 99.41764832 C-7.86786215 98.98008361 -7.86786215 98.98008361 -11.01928711 95.97618103 C-12.57212553 93.68420232 -13.81119237 91.41257983 -14.98983765 88.91062927 C-15.52576538 88.0263324 -16.06169312 87.14203552 -16.61386108 86.23094177 C-17.0215271 85.50648865 -17.42919312 84.78203552 -17.84921265 84.03562927 C-18.32076782 83.20353943 -18.792323 82.37144958 -19.27816772 81.5141449 C-19.7605188 80.65498474 -20.24286987 79.79582458 -20.73983765 78.91062927 C-23.7638201 73.54187824 -26.79080586 68.18753587 -30.0249939 62.94187927 C-30.49389038 62.17488708 -30.96278687 61.4078949 -31.44589233 60.61766052 C-32.32913358 59.18056533 -33.22380032 57.75041001 -34.13143921 56.32859802 C-35.82304874 53.55874354 -37.00038229 51.55960434 -36.9468689 48.26609802 C-35.82998942 45.5172069 -34.48718916 43.21284188 -32.86483765 40.72312927 C-27.71495324 32.65819262 -23.01487319 24.33202178 -18.27059937 16.02513123 C-17.64685425 14.93675964 -17.02310913 13.84838806 -16.38046265 12.72703552 C-15.54563354 11.2643927 -15.54563354 11.2643927 -14.69393921 9.77220154 C-14.13158569 8.82788269 -13.56923218 7.88356384 -12.98983765 6.91062927 C-12.52078003 5.81927673 -12.05172241 4.72792419 -11.56845093 3.60350037 C-7.94445523 -0.18107382 -5.0963363 0.12994484 0 0 Z " fill="#939393" transform="translate(242.98983764648438,97.08937072753906)"/>
<path d="M0 0 C0.98783981 -0.0182634 1.97567963 -0.03652679 2.99345398 -0.05534363 C4.67583916 -0.09846428 4.67583916 -0.09846428 6.39221191 -0.14245605 C8.21096077 -0.15383858 8.21096077 -0.15383858 10.06645203 -0.16545105 C11.3131517 -0.18113632 12.55985138 -0.19682159 13.84432983 -0.21298218 C16.48527897 -0.2376433 19.12453911 -0.25285183 21.76542664 -0.25456238 C24.46987963 -0.25871031 27.17110099 -0.29343977 29.87480164 -0.35710144 C33.77302439 -0.44255433 37.66738701 -0.46781675 41.56645203 -0.47795105 C43.37609184 -0.52880608 43.37609184 -0.52880608 45.22229004 -0.58068848 C53.39790419 -0.49227847 53.39790419 -0.49227847 56.5227356 2.39797974 C58.09242451 4.7120478 59.32582383 7.01393295 60.51567078 9.5415802 C61.15818787 10.603526 61.80070496 11.6654718 62.46269226 12.75959778 C63.29135803 14.20822205 63.29135803 14.20822205 64.13676453 15.68611145 C64.76260437 16.77601379 65.38844421 17.86591614 66.0332489 18.98884583 C66.98361023 20.65463684 66.98361023 20.65463684 67.95317078 22.3540802 C69.22241573 24.56908803 70.4919457 26.78393256 71.76176453 28.99861145 C72.37648621 30.08094055 72.99120789 31.16326965 73.6245575 32.27839661 C74.90866806 34.4941753 76.22958997 36.68894431 77.58256531 38.86335754 C78.23209167 39.91603821 78.88161804 40.96871887 79.55082703 42.05329895 C80.14387634 42.99004456 80.73692566 43.92679016 81.34794617 44.891922 C82.75189521 48.07759186 82.64542738 49.28658342 81.51567078 52.5415802 C80.29154968 55.01081848 80.29154968 55.01081848 78.74223328 57.6118927 C77.88323425 59.06764709 77.88323425 59.06764709 77.00688171 60.55281067 C76.3910321 61.58035461 75.7751825 62.60789856 75.14067078 63.6665802 C73.86679044 65.81735964 72.59335903 67.96840504 71.32035828 70.1197052 C70.68195007 71.19413879 70.04354187 72.26857239 69.38578796 73.37556458 C66.16566099 78.82707979 63.02586801 84.32512031 59.89311218 89.82722473 C59.47465027 90.55538391 59.05618835 91.28354309 58.62504578 92.0337677 C58.26378601 92.66653625 57.90252625 93.29930481 57.53031921 93.95124817 C56.51567078 95.5415802 56.51567078 95.5415802 54.51567078 97.5415802 C52.15159607 97.84265137 52.15159607 97.84265137 49.15141296 97.91145325 C47.46891449 97.95480049 47.46891449 97.95480049 45.75242615 97.99902344 C44.53476562 98.01693436 43.3171051 98.03484528 42.06254578 98.05329895 C40.81443115 98.07181412 39.56631653 98.09032928 38.28038025 98.10940552 C35.63388571 98.1415007 32.98791421 98.16764591 30.34135437 98.18684387 C26.95957757 98.214516 23.58105171 98.29363013 20.20046616 98.38438702 C16.96734407 98.45877657 13.73388876 98.47015723 10.50004578 98.49079895 C9.29048218 98.53097641 8.08091858 98.57115387 6.83470154 98.61254883 C-1.39786536 98.57062947 -1.39786536 98.57062947 -4.56530762 95.5705719 C-6.10982797 93.28365395 -7.33599031 91.04697914 -8.48432922 88.5415802 C-9.00639954 87.63150208 -9.52846985 86.72142395 -10.06636047 85.7837677 C-10.47241516 85.00259583 -10.87846985 84.22142395 -11.29682922 83.4165802 C-13.71228742 78.89550007 -16.27294245 74.49034306 -18.92182922 70.1040802 C-19.30234436 69.47058655 -19.6828595 68.8370929 -20.0749054 68.18440247 C-21.91279446 65.12829125 -23.76626516 62.08385116 -25.65229797 59.0572052 C-26.62102844 57.47165833 -26.62102844 57.47165833 -27.60932922 55.8540802 C-28.18940735 54.92208801 -28.76948547 53.99009583 -29.36714172 53.02986145 C-30.67130214 50.12514051 -30.45257131 49.46987983 -29.48432922 46.5415802 C-28.13533578 43.92000689 -26.74828716 41.3554364 -25.29682922 38.7915802 C-24.86555725 38.02313782 -24.43428528 37.25469543 -23.98994446 36.46296692 C-20.0633837 29.49965529 -16.06177633 22.57920813 -12.04682922 15.6665802 C-11.44395081 14.62662903 -10.84107239 13.58667786 -10.21992493 12.51521301 C-9.64846741 11.53649231 -9.07700989 10.55777161 -8.48823547 9.5493927 C-7.98106995 8.67943665 -7.47390442 7.80948059 -6.95137024 6.91316223 C-6.22518494 5.73922913 -6.22518494 5.73922913 -5.48432922 4.5415802 C-5.07205078 3.84497787 -4.65977234 3.14837555 -4.23500061 2.43066406 C-2.48432922 0.5415802 -2.48432922 0.5415802 0 0 Z " fill="#939393" transform="translate(323.4843292236328,247.4584197998047)"/>
<path d="M0 0 C1.78307556 0.03339981 1.78307556 0.03339981 3.60217285 0.06747437 C4.84084106 0.05695038 6.07950928 0.04642639 7.35571289 0.0355835 C10.63652568 0.02620517 13.91154536 0.07023827 17.19158936 0.13192749 C19.19603455 0.15341306 21.19518703 0.13202283 23.19934082 0.09432983 C27.06526359 0.02618895 30.92341913 0.03462586 34.78967285 0.06747437 C35.97838989 0.04520782 37.16710693 0.02294128 38.3918457 0 C46.47997411 0.25083252 46.47997411 0.25083252 49.9417572 3.88807678 C51.75381285 6.70181335 53.24827284 9.51349475 54.69592285 12.52841187 C55.71629639 14.3075874 56.74710481 16.0808682 57.7935791 17.84481812 C58.7846843 19.59191706 59.77298176 21.34061186 60.75842285 23.09091187 C67.22914545 34.77636566 67.22914545 34.77636566 74.43444824 46.00717163 C75.69592285 48.52841187 75.69592285 48.52841187 75.57043457 50.99667358 C74.56320041 53.91264742 73.26661091 56.37437368 71.70373535 59.03622437 C71.0798291 60.1074353 70.45592285 61.17864624 69.81311035 62.28231812 C69.15568848 63.39477905 68.4982666 64.50723999 67.82092285 65.65341187 C66.55266295 67.82266473 65.28443466 69.99193608 64.01623535 72.16122437 C63.49518471 72.99581177 63.49518471 72.99581177 62.96360779 73.84725952 C60.81989872 77.33303791 59.19471448 80.73221533 57.76452637 84.57138062 C55.56578324 89.96957991 53.37393643 94.86428644 48.69592285 98.52841187 C40.01315502 101.63898164 30.46812767 100.80151758 21.40374756 100.3576355 C18.703515 100.25175042 16.00754565 100.25074423 13.30556011 100.2520256 C10.06327828 100.24414952 6.8237267 100.15892038 3.5826416 100.07528687 C2.37943771 100.0621344 1.17623383 100.04898193 -0.06343079 100.03543091 C-8.17463533 99.59826861 -8.17463533 99.59826861 -11.32089233 96.61799622 C-12.88089119 94.31956431 -14.11927775 92.03799344 -15.30407715 89.52841187 C-15.89124512 88.54687134 -16.47841309 87.56533081 -17.08337402 86.55404663 C-17.55839355 85.70125122 -18.03341309 84.84845581 -18.52282715 83.96981812 C-19.06294434 83.0062439 -19.60306152 82.04266968 -20.1595459 81.04989624 C-20.70224121 80.0734314 -21.24493652 79.09696655 -21.80407715 78.09091187 C-26.36142634 69.923406 -30.95053429 61.78211704 -35.98449707 53.89584351 C-37.30407715 51.52841187 -37.30407715 51.52841187 -37.1986084 49.05966187 C-36.13884842 46.06086507 -34.72532043 43.69902263 -32.99157715 41.02841187 C-28.67569365 34.25709569 -24.71327762 27.30379084 -20.78137207 20.30380249 C-19.83921629 18.63746063 -18.88193875 16.97954673 -17.9072876 15.33200073 C-16.27403929 12.55426723 -16.27403929 12.55426723 -14.93092346 9.66464233 C-11.10160098 2.3820352 -8.23260216 0.255313 0 0 Z " fill="#939393" transform="translate(243.3040771484375,195.47158813476563)"/>
<path d="M0 0 C1.19499115 0.0316777 2.3899823 0.06335541 3.6211853 0.09599304 C4.86459686 0.09258408 6.10800842 0.08917511 7.38909912 0.08566284 C10.68068008 0.09275426 13.96639322 0.15164396 17.25686646 0.22984314 C19.27205215 0.26400297 21.28355659 0.26099449 23.29891968 0.24369812 C27.17887019 0.21209392 31.05395312 0.23733985 34.9336853 0.28349304 C36.73224472 0.27331902 36.73224472 0.27331902 38.56713867 0.26293945 C46.65086293 0.5152396 46.65086293 0.5152396 49.44645691 3.14897156 C50.74802716 5.20109544 51.72095986 7.20725898 52.6446228 9.45146179 C53.13374146 10.27436707 53.62286011 11.09727234 54.12680054 11.94511414 C54.72150146 12.98079529 54.72150146 12.98079529 55.32821655 14.03739929 C55.77785767 14.8180072 56.22749878 15.59861511 56.69076538 16.40287781 C57.14991333 17.20266052 57.60906128 18.00244324 58.0821228 18.82646179 C62.47367772 26.44713348 62.47367772 26.44713348 66.9571228 34.01396179 C67.39798218 34.75130554 67.83884155 35.48864929 68.2930603 36.24833679 C69.29340921 37.87896333 70.324287 39.4909482 71.3711853 41.09208679 C71.93579468 41.97380554 72.50040405 42.85552429 73.0821228 43.76396179 C73.59645874 44.5438446 74.11079468 45.32372742 74.64071655 46.12724304 C75.95857116 49.17830721 75.73645271 50.31302186 74.6446228 53.45146179 C73.31483326 56.07411286 71.80531437 58.57006435 70.2696228 61.07646179 C69.35987366 62.58894466 68.45105482 64.10198741 67.5430603 65.61552429 C67.06836304 66.40346375 66.59366577 67.1914032 66.10458374 68.0032196 C63.19381746 72.88435076 60.3883391 77.82763484 57.57675171 82.7664032 C56.74509097 84.21371299 55.89788255 85.65225477 55.03186035 87.07926941 C53.62107089 89.41337653 53.62107089 89.41337653 52.52578735 91.8115387 C50.5480792 95.53732419 49.08732182 97.9974172 44.94717407 99.30039978 C41.5352429 99.64544302 38.22998201 99.69896391 34.8008728 99.64677429 C33.55841797 99.65538483 32.31596313 99.66399536 31.03585815 99.67286682 C27.74222926 99.68054627 24.45245015 99.64445856 21.15933228 99.59403992 C19.14521343 99.57646695 17.13462176 99.59396783 15.12069702 99.62480164 C11.24159807 99.68048248 7.36769093 99.67365897 3.4883728 99.64677429 C2.29135742 99.66499237 1.09434204 99.68321045 -0.13894653 99.70198059 C-8.2526871 99.49671056 -8.2526871 99.49671056 -11.39146423 96.5214386 C-12.94564845 94.22308483 -14.16828939 91.9559103 -15.3553772 89.45146179 C-16.21240119 87.98895318 -17.07933512 86.53215558 -17.96084595 85.08427429 C-18.8249603 83.58364419 -19.68553822 82.08097307 -20.5428772 80.57646179 C-23.5004646 75.40171868 -26.46933468 70.23973497 -29.54678345 65.13505554 C-30.05894409 64.27702332 -30.57110474 63.41899109 -31.0987854 62.53495789 C-32.08640446 60.8823644 -33.08334128 59.23529599 -34.09048462 57.5945282 C-34.53368042 56.84735535 -34.97687622 56.1001825 -35.4335022 55.33036804 C-35.82956665 54.67624939 -36.2256311 54.02213074 -36.63369751 53.34819031 C-37.56865396 50.89092487 -37.28159556 49.8957212 -36.3553772 47.45146179 C-35.52538917 45.76125382 -34.6430004 44.0963499 -33.72647095 42.45146179 C-32.91605347 40.9954657 -32.91605347 40.9954657 -32.08926392 39.51005554 C-29.23242534 34.47056333 -26.33995604 29.45339213 -23.4178772 24.45146179 C-22.83586548 23.44857117 -22.25385376 22.44568054 -21.65420532 21.41239929 C-21.0721936 20.41466492 -20.49018188 19.41693054 -19.89053345 18.38896179 C-19.3788562 17.51111023 -18.86717896 16.63325867 -18.33999634 15.72880554 C-17.68507202 14.6472821 -17.03014771 13.56575867 -16.3553772 12.45146179 C-15.91866699 11.53664536 -15.48195679 10.62182892 -15.03201294 9.67929077 C-11.1585606 2.32030502 -8.34112712 0.18536917 0 0 Z " fill="#929292" transform="translate(417.3553771972656,195.5485382080078)"/>
<path d="M0 0 C1.87079727 0.00131424 1.87079727 0.00131424 3.77938843 0.00265503 C7.08379718 0.01695289 10.38427608 0.07284988 13.68780518 0.14526367 C16.38305131 0.19112359 19.07710701 0.18493507 21.77265358 0.17772102 C24.99457244 0.17458511 28.21582741 0.21308128 31.4375 0.25 C33.24850693 0.25364059 33.24850693 0.25364059 35.09609985 0.25735474 C43.41285987 0.46997307 43.41285987 0.46997307 46.72851562 3.3503418 C47.40043945 4.68899292 47.40043945 4.68899292 48.0859375 6.0546875 C48.5072998 6.73490967 48.92866211 7.41513184 49.36279297 8.1159668 C49.72260254 8.78023682 50.08241211 9.44450684 50.453125 10.12890625 C50.86062988 10.87366211 51.26813477 11.61841797 51.68798828 12.38574219 C52.10806152 13.16336914 52.52813477 13.94099609 52.9609375 14.7421875 C53.85029924 16.3665777 54.74091468 17.99028214 55.6328125 19.61328125 C56.05755859 20.38655762 56.48230469 21.15983398 56.91992188 21.95654297 C58.29906594 24.43819374 59.73658345 26.87848399 61.2109375 29.3046875 C61.65824219 30.04460937 62.10554688 30.78453125 62.56640625 31.546875 C63.41790193 32.95217122 64.27056211 34.35676902 65.12744141 35.75878906 C66.27196447 37.64185714 67.39866465 39.53476919 68.5234375 41.4296875 C68.89033691 42.02555664 69.25723633 42.62142578 69.63525391 43.23535156 C72.12152558 47.46694505 72.12152558 47.46694505 71.95703125 50.18359375 C65.4422421 64.17724399 56.87766912 77.44468552 48.9609375 90.6796875 C48.39379028 91.62956543 48.39379028 91.62956543 47.81518555 92.59863281 C45.20951979 96.93110521 45.20951979 96.93110521 44.0859375 98.0546875 C42.33943288 98.20066603 40.58710534 98.2775729 38.83520508 98.3269043 C37.15259331 98.37520638 37.15259331 98.37520638 35.43598938 98.42448425 C30.96391248 98.52033618 26.49184958 98.6013599 22.01904774 98.65494061 C18.62348823 98.69588602 15.23081924 98.75613793 11.83666992 98.86401367 C7.92647017 98.98787401 4.01750039 99.02967289 0.10546875 99.06640625 C-1.1072319 99.11488205 -2.31993256 99.16335785 -3.56938171 99.21330261 C-6.95913008 99.20593493 -9.68406158 99.08937839 -12.9140625 98.0546875 C-15.80206098 95.08864098 -17.28632935 91.8244316 -18.9140625 88.0546875 C-19.61412765 86.81924505 -20.33261101 85.59389025 -21.07641602 84.38427734 C-21.72537842 83.27262207 -22.37434082 82.1609668 -23.04296875 81.015625 C-23.77535553 79.76300032 -24.50777847 78.51039677 -25.24023438 77.2578125 C-26.36172058 75.33849212 -27.48282738 73.41895236 -28.60327148 71.49902344 C-29.34546317 70.22761821 -30.08824234 68.95655572 -30.83163452 67.68585205 C-31.54833727 66.46022733 -32.26340104 65.23364252 -32.97671509 64.00604248 C-34.88075895 60.74555111 -36.88337574 57.59135378 -39.00390625 54.46875 C-40.9140625 51.0546875 -40.9140625 51.0546875 -41 48.53125 C-39.44540943 44.98588876 -37.55997207 41.72800774 -35.5390625 38.4296875 C-34.62931336 36.91720463 -33.72049451 35.40416188 -32.8125 33.890625 C-32.33780273 33.10268555 -31.86310547 32.31474609 -31.37402344 31.50292969 C-28.46325715 26.62179853 -25.65777879 21.67851446 -22.84619141 16.73974609 C-22.01458605 15.29253269 -21.16729695 13.85416243 -20.30102539 12.4274292 C-18.88962895 10.09261714 -18.88962895 10.09261714 -17.79769897 7.68966675 C-13.53998147 -0.35701432 -8.55173831 -0.21865504 0 0 Z " fill="#929292" transform="translate(333.9140625,147.9453125)"/>
<path d="M0 0 C1.01037827 0.00222061 2.02075653 0.00444122 3.06175232 0.00672913 C4.77341331 0.00684242 4.77341331 0.00684242 6.51965332 0.00695801 C7.76129745 0.01211929 9.00294159 0.01728058 10.2822113 0.02259827 C12.17785072 0.02472069 12.17785072 0.02472069 14.11178589 0.02688599 C17.47705394 0.0315487 20.84225495 0.04053972 24.20750427 0.05158997 C27.63930175 0.06180606 31.07110614 0.06638403 34.50291443 0.07142639 C41.2405633 0.08248071 47.9781803 0.09923742 54.71580505 0.12025452 C54.71580505 0.45025452 54.71580505 0.78025452 54.71580505 1.12025452 C54.03786392 1.12390015 53.35992279 1.12754578 52.66143799 1.13130188 C45.60458612 1.17311588 38.5483853 1.24245447 31.4919281 1.32777405 C28.8585308 1.35599771 26.22504856 1.37720522 23.59153748 1.39125061 C19.80569428 1.41265971 16.02087385 1.45930317 12.2353363 1.51087952 C11.05808487 1.51210815 9.88083344 1.51333679 8.66790771 1.51460266 C2.21325367 1.56742908 2.21325367 1.56742908 -3.56666565 4.15834045 C-4.13345032 4.80577209 -4.70023499 5.45320374 -5.28419495 6.12025452 C-2.99081061 0.15745525 -2.99081061 0.15745525 0 0 Z " fill="#C7C7C7" transform="translate(410.28419494628906,196.87974548339844)"/>
<path d="M0 0 C0.9583374 0.00523682 1.9166748 0.01047363 2.90405273 0.01586914 C4.45576172 0.02070313 4.45576172 0.02070313 6.03881836 0.02563477 C7.12743164 0.03401367 8.21604492 0.04239258 9.33764648 0.05102539 C10.97636719 0.05779297 10.97636719 0.05779297 12.64819336 0.06469727 C15.35723144 0.07652713 18.06616248 0.09300996 20.77514648 0.11352539 C20.77514648 0.44352539 20.77514648 0.77352539 20.77514648 1.11352539 C20.16517822 1.12287109 19.55520996 1.1322168 18.92675781 1.1418457 C16.14625162 1.19573865 13.36739386 1.27934608 10.58764648 1.36352539 C9.62793945 1.37770508 8.66823242 1.39188477 7.67944336 1.40649414 C2.15246987 1.5977389 -1.24502324 1.85246514 -5.22485352 6.11352539 C-2.93102 0.14955825 -2.93102 0.14955825 0 0 Z " fill="#BFBFBF" transform="translate(410.224853515625,196.886474609375)"/>
<path d="M0 0 C1.0859375 3.75 1.0859375 3.75 0.3125 6 C-1.20988656 8.31982713 -2.97571423 10.11066661 -5 12 C-5.33 11.34 -5.66 10.68 -6 10 C-4.78515625 7.6171875 -4.78515625 7.6171875 -3.0625 4.875 C-2.21365234 3.50988281 -2.21365234 3.50988281 -1.34765625 2.1171875 C-0.90292969 1.41851562 -0.45820313 0.71984375 0 0 Z " fill="#B6B6B6" transform="translate(397,116)"/>
<path d="M0 0 C0.33 0 0.66 0 1 0 C1.19878036 3.57804656 1.04108797 5.99208089 -1 9 C-1.99 9.33 -2.98 9.66 -4 10 C-2.8905928 6.51329166 -1.73662334 3.22515763 0 0 Z " fill="#B1B1B1" transform="translate(385,136)"/>
<path d="M0 0 C0.66 0 1.32 0 2 0 C2 0.66 2 1.32 2 2 C2.66 2.33 3.32 2.66 4 3 C5.1875 4.9375 5.1875 4.9375 6 7 C5.67 7.66 5.34 8.32 5 9 C4.16396622 7.68921847 3.3312426 6.37632511 2.5 5.0625 C2.0359375 4.33160156 1.571875 3.60070312 1.09375 2.84765625 C0 1 0 1 0 0 Z " fill="#BDBDBD" transform="translate(213,159)"/>
<path d="" fill="#FFFFFF" transform="translate(0,0)"/>
<path d="" fill="#FFFFFF" transform="translate(0,0)"/>
<path d="" fill="#FFFFFF" transform="translate(0,0)"/>
<path d="" fill="#FFFFFF" transform="translate(0,0)"/>
<path d="" fill="#FFFFFF" transform="translate(0,0)"/>
<path d="" fill="#FFFFFF" transform="translate(0,0)"/>
<path d="" fill="#FFFFFF" transform="translate(0,0)"/>
<path d="" fill="#FFFFFF" transform="translate(0,0)"/>
<path d="" fill="#FFFFFF" transform="translate(0,0)"/>
<path d="" fill="#FFFFFF" transform="translate(0,0)"/>
<path d="" fill="#FFFFFF" transform="translate(0,0)"/>
<path d="" fill="#FFFFFF" transform="translate(0,0)"/>
<path d="" fill="#FFFFFF" transform="translate(0,0)"/>
<path d="" fill="#FFFFFF" transform="translate(0,0)"/>
<path d="" fill="#FFFFFF" transform="translate(0,0)"/>
<path d="" fill="#FFFFFF" transform="translate(0,0)"/>
<path d="" fill="#FFFFFF" transform="translate(0,0)"/>
<path d="" fill="#FFFFFF" transform="translate(0,0)"/>
<path d="" fill="#FFFFFF" transform="translate(0,0)"/>
<path d="" fill="#FFFFFF" transform="translate(0,0)"/>
<path d="" fill="#FFFFFF" transform="translate(0,0)"/>
<path d="" fill="#FFFFFF" transform="translate(0,0)"/>
<path d="" fill="#FFFFFF" transform="translate(0,0)"/>
<path d="" fill="#FFFFFF" transform="translate(0,0)"/>
<path d="" fill="#FFFFFF" transform="translate(0,0)"/>
<path d="" fill="#FFFFFF" transform="translate(0,0)"/>
<path d="" fill="#FFFFFF" transform="translate(0,0)"/>
<path d="" fill="#FFFFFF" transform="translate(0,0)"/>
<path d="" fill="#FFFFFF" transform="translate(0,0)"/>
<path d="" fill="#FFFFFF" transform="translate(0,0)"/>
<path d="" fill="#FFFFFF" transform="translate(0,0)"/>
<path d="" fill="#FFFFFF" transform="translate(0,0)"/>
<path d="" fill="#FFFFFF" transform="translate(0,0)"/>
<path d="" fill="#FFFFFF" transform="translate(0,0)"/>
<path d="" fill="#FFFFFF" transform="translate(0,0)"/>
<path d="" fill="#FFFFFF" transform="translate(0,0)"/>
<path d="" fill="#FFFFFF" transform="translate(0,0)"/>
<path d="" fill="#FFFFFF" transform="translate(0,0)"/>
<path d="" fill="#FFFFFF" transform="translate(0,0)"/>
<path d="" fill="#FFFFFF" transform="translate(0,0)"/>
<path d="" fill="#FFFFFF" transform="translate(0,0)"/>
<path d="" fill="#FFFFFF" transform="translate(0,0)"/>
<path d="" fill="#FFFFFF" transform="translate(0,0)"/>
<path d="" fill="#FFFFFF" transform="translate(0,0)"/>
<path d="" fill="#FFFFFF" transform="translate(0,0)"/>
<path d="" fill="#FFFFFF" transform="translate(0,0)"/>
<path d="" fill="#FFFFFF" transform="translate(0,0)"/>
<path d="" fill="#FFFFFF" transform="translate(0,0)"/>
<path d="" fill="#FFFFFF" transform="translate(0,0)"/>
<path d="" fill="#FFFFFF" transform="translate(0,0)"/>
<path d="" fill="#FFFFFF" transform="translate(0,0)"/>
<path d="" fill="#FFFFFF" transform="translate(0,0)"/>
<path d="" fill="#FFFFFF" transform="translate(0,0)"/>
<path d="" fill="#FFFFFF" transform="translate(0,0)"/>
<path d="" fill="#FFFFFF" transform="translate(0,0)"/>
<path d="" fill="#FFFFFF" transform="translate(0,0)"/>
<path d="" fill="#FFFFFF" transform="translate(0,0)"/>
<path d="" fill="#FFFFFF" transform="translate(0,0)"/>
<path d="" fill="#FFFFFF" transform="translate(0,0)"/>
<path d="" fill="#FFFFFF" transform="translate(0,0)"/>
<path d="" fill="#FFFFFF" transform="translate(0,0)"/>
<path d="" fill="#FFFFFF" transform="translate(0,0)"/>
<path d="" fill="#FFFFFF" transform="translate(0,0)"/>
<path d="" fill="#FFFFFF" transform="translate(0,0)"/>
<path d="" fill="#FFFFFF" transform="translate(0,0)"/>
<path d="" fill="#FFFFFF" transform="translate(0,0)"/>
<path d="" fill="#FFFFFF" transform="translate(0,0)"/>
</svg>
